<svg xmlns="http://www.w3.org/2000/svg" viewBox="0 0 348 71" width="348" height="71"><path d="M17.78 52.08L7.09 52.08Q6.45 52.08 6.45 51.44Q6.45 51.18 6.51 50.70Q6.58 50.22 6.83 49.84Q8.75 49.65 9.65 48.69Q10.54 47.73 10.61 45.74Q10.74 44.02 10.80 41.01Q10.86 38 10.96 34.35Q11.06 30.70 11.09 26.93Q11.12 23.15 11.12 19.89Q11.12 17.07 11.09 14.67Q11.06 12.27 10.93 11.44Q10.80 10.29 10.42 9.87Q10.03 9.46 9.01 9.33L6.45 9.07Q6 9.07 6 8.56Q6 8.18 6.19 7.66Q6.38 7.15 6.64 6.83Q7.86 6.45 9.42 6.22Q10.99 6 12.21 6Q13.68 6 14.48 6.42Q15.28 6.83 15.15 8.50Q15.09 10.10 14.96 12.94Q14.83 15.79 14.74 19.38Q14.64 22.96 14.58 26.74Q16.43 24.43 19.15 23.06Q21.87 21.68 24.82 21.68Q28.91 21.68 31.38 24.11Q33.84 26.54 33.84 31.73L33.84 39.47Q33.84 42.29 33.87 44.24Q33.90 46.19 33.97 47.73Q34.03 48.62 34.35 48.91Q34.67 49.20 35.06 49.33Q35.50 49.39 36.50 49.46Q37.49 49.52 38.32 49.52Q38.32 49.84 38.26 50.48Q38.19 51.12 38.06 51.44Q37.87 52.08 37.36 52.08L26.42 52.08Q25.78 52.08 25.78 51.44Q25.78 51.18 25.84 50.70Q25.90 50.22 26.16 49.84Q28.34 49.58 29.17 48.75Q30 47.92 30.19 46.32Q30.32 45.55 30.35 43.31Q30.38 41.07 30.38 38.45Q30.38 36.46 30.35 34.74Q30.32 33.01 30.26 32.11Q30.06 28.53 28.21 26.80Q26.35 25.07 23.54 25.01Q20.59 24.94 18.03 26.86Q15.47 28.78 14.45 31.79Q14.45 34.48 14.42 36.94Q14.38 39.41 14.38 41.46Q14.38 43.31 14.38 44.88Q14.38 46.45 14.45 47.60Q14.51 48.62 14.83 48.98Q15.15 49.33 15.92 49.46Q16.37 49.52 17.26 49.52Q18.16 49.52 18.80 49.52Q18.80 49.84 18.77 50.35Q18.74 50.86 18.61 51.18Q18.42 51.82 18.16 51.95Q17.90 52.08 17.78 52.08M65.26 52.72Q63.98 52.72 63.22 51.60Q62.45 50.48 62.32 48.75Q60.02 50.93 57.07 51.98Q54.13 53.04 51.44 53.04Q47.92 53.04 45.36 50.83Q42.80 48.62 42.80 44.59Q42.80 41.07 44.78 38.99Q46.77 36.91 51.09 35.86Q55.41 34.80 62.32 34.42L62.32 33.01Q62.32 31.66 62.19 30.13Q62.06 28.59 61.39 27.25Q60.72 25.90 59.18 25.04Q57.65 24.18 54.90 24.18Q51.76 24.18 50.22 25.55Q48.69 26.93 48.43 29.68Q48.18 29.68 47.86 29.71Q47.54 29.74 47.22 29.74Q46.06 29.74 45.04 29.42Q44.02 29.10 44.02 28.08Q44.02 27.06 45.17 25.94Q46.32 24.82 48.24 23.86Q50.16 22.90 52.46 22.29Q54.77 21.68 57.01 21.68Q59.31 21.68 61.39 22.48Q63.47 23.28 64.75 25.20Q66.03 27.12 65.90 30.51Q65.84 32.30 65.81 35.02Q65.78 37.74 65.78 40.43Q65.78 42.42 65.81 44.14Q65.84 45.87 65.84 47.09Q65.90 48.82 66.26 49.10Q66.61 49.39 67.31 49.33Q67.38 49.33 67.38 49.33L70.58 49.14Q70.96 49.14 70.96 49.58Q70.96 49.90 70.80 50.54Q70.64 51.18 70.32 51.50Q69.94 51.70 68.94 51.98Q67.95 52.27 66.90 52.50Q65.84 52.72 65.26 52.72M62.26 46.32L62.32 37.49Q59.63 37.23 57.52 37.23Q53.30 37.23 50.99 38.06Q48.69 38.90 47.79 40.40Q46.90 41.90 46.90 43.95Q46.90 46.96 48.82 48.34Q50.74 49.71 53.36 49.71Q55.66 49.71 58.06 48.82Q60.46 47.92 62.26 46.32M87.22 52.08L75.25 52.08Q74.61 52.08 74.61 51.44Q74.61 51.18 74.67 50.70Q74.74 50.22 74.99 49.84Q77.23 49.58 78 48.75Q78.77 47.92 78.90 46.32Q78.96 45.49 79.02 43.70Q79.09 41.90 79.12 39.57Q79.15 37.23 79.15 34.93Q79.15 32.75 79.12 30.99Q79.09 29.23 79.02 28.40Q78.96 27.12 78.54 26.51Q78.13 25.90 77.04 25.84L74.61 25.58Q74.16 25.58 74.16 25.07Q74.16 24.11 74.80 23.34Q75.82 23.02 77.36 22.83Q78.90 22.64 80.05 22.64Q82.67 22.64 82.61 25.52Q82.54 26.74 82.54 28.46Q83.63 25.52 85.71 23.60Q87.79 21.68 90.74 21.68Q92.02 21.68 93.17 22Q94.32 22.32 94.77 22.83Q94.96 23.02 94.96 23.41Q94.96 24.37 94.48 25.42Q94 26.48 93.55 26.80Q92.34 26.22 91.09 25.87Q89.84 25.52 88.75 25.52Q85.74 25.52 84.18 28.66Q82.61 31.79 82.48 36.91Q82.48 37.42 82.48 37.90Q82.48 38.38 82.48 38.90Q82.48 41.78 82.51 43.76Q82.54 45.74 82.61 47.41Q82.74 49.07 84.02 49.26Q84.34 49.26 85.20 49.33Q86.06 49.39 86.99 49.46Q87.92 49.52 88.24 49.52Q88.24 49.84 88.21 50.35Q88.18 50.86 88.05 51.18Q87.86 51.82 87.60 51.95Q87.34 52.08 87.22 52.08M102.06 52.27Q101.62 52.21 101.01 51.89Q100.40 51.57 100.08 51.12Q100.53 50.35 100.88 48.69Q101.23 47.02 101.30 45.74Q101.42 44.46 101.49 41.90Q101.55 39.34 101.58 36.08Q101.62 32.82 101.65 29.30Q101.68 25.78 101.68 22.51Q101.68 18.48 101.65 15.41Q101.62 12.34 101.49 11.44Q101.36 10.29 100.98 9.87Q100.59 9.46 99.57 9.33L97.01 9.07Q96.56 9.07 96.56 8.56Q96.56 8.18 96.75 7.66Q96.94 7.15 97.20 6.83Q98.42 6.45 99.98 6.22Q101.55 6 102.77 6Q104.24 6 105.04 6.42Q105.84 6.83 105.71 8.50Q105.52 11.63 105.39 16.46Q105.26 21.30 105.14 26.61Q107.12 24.30 109.78 22.99Q112.43 21.68 115.12 21.68Q118.38 21.68 121.14 23.31Q123.89 24.94 125.55 28.14Q127.22 31.34 127.28 36.08Q127.34 40.82 125.62 44.66Q123.89 48.50 120.66 50.77Q117.42 53.04 112.94 53.04Q107.82 53.04 104.75 49.84Q104.24 50.67 103.44 51.41Q102.64 52.14 102.06 52.27M105.14 30.26Q105.07 33.33 105.07 36.08Q105.07 38.32 105.10 40.37Q105.14 42.42 105.14 44.21Q105.97 46.90 108.30 48.50Q110.64 50.10 113.65 50.10Q117.94 50.10 120.56 46.70Q123.18 43.31 123.25 37.42Q123.31 31.73 120.69 28.40Q118.06 25.07 113.78 25.07Q111.09 25.07 108.69 26.45Q106.29 27.82 105.14 30.26M146.35 53.04Q142.26 53.04 139.28 51.15Q136.30 49.26 134.70 45.87Q133.10 42.48 133.04 38.13Q133.04 33.26 134.93 29.58Q136.82 25.90 140.18 23.79Q143.54 21.68 147.82 21.68Q151.92 21.68 154.90 23.54Q157.87 25.39 159.54 28.72Q161.20 32.05 161.20 36.46Q161.26 41.33 159.34 45.07Q157.42 48.82 154.06 50.93Q150.70 53.04 146.35 53.04M147.63 49.90Q152.30 49.90 154.80 46.70Q157.30 43.50 157.30 37.94Q157.30 31.92 154.38 28.37Q151.47 24.82 146.61 24.82Q142 24.82 139.47 28.05Q136.94 31.28 136.94 36.78Q136.94 42.80 139.82 46.35Q142.70 49.90 147.63 49.90M179.06 52.08L167.09 52.08Q166.45 52.08 166.45 51.44Q166.45 51.18 166.51 50.70Q166.58 50.22 166.83 49.84Q169.07 49.58 169.84 48.75Q170.61 47.92 170.74 46.32Q170.80 45.49 170.86 43.70Q170.93 41.90 170.96 39.57Q170.99 37.23 170.99 34.93Q170.99 32.75 170.96 30.99Q170.93 29.23 170.86 28.40Q170.80 27.12 170.38 26.51Q169.97 25.90 168.88 25.84L166.45 25.58Q166 25.58 166 25.07Q166 24.11 166.64 23.34Q167.66 23.02 169.20 22.83Q170.74 22.64 171.89 22.64Q174.51 22.64 174.45 25.52Q174.38 26.74 174.38 28.46Q175.47 25.52 177.55 23.60Q179.63 21.68 182.58 21.68Q183.86 21.68 185.01 22Q186.16 22.32 186.61 22.83Q186.80 23.02 186.80 23.41Q186.80 24.37 186.32 25.42Q185.84 26.48 185.39 26.80Q184.18 26.22 182.93 25.87Q181.68 25.52 180.59 25.52Q177.58 25.52 176.02 28.66Q174.45 31.79 174.32 36.91Q174.32 37.42 174.32 37.90Q174.32 38.38 174.32 38.90Q174.32 41.78 174.35 43.76Q174.38 45.74 174.45 47.41Q174.58 49.07 175.86 49.26Q176.18 49.26 177.04 49.33Q177.90 49.39 178.83 49.46Q179.76 49.52 180.08 49.52Q180.08 49.84 180.05 50.35Q180.02 50.86 179.89 51.18Q179.70 51.82 179.44 51.95Q179.18 52.08 179.06 52.08M193.01 51.76L193.78 52.14Q193.33 52.91 193.20 53.74Q193.07 54.58 193.07 55.15Q193.07 57.07 194.42 58.42Q195.76 59.76 197.94 60.43Q200.11 61.10 202.61 61.17Q205.17 61.17 207.50 60.56Q209.84 59.95 211.34 58.58Q212.85 57.20 212.91 55.09Q212.98 53.04 211.34 51.47Q209.71 49.90 206 50.03L199.92 50.22Q198 50.29 196.24 49.74Q194.48 49.20 193.42 48.08Q192.37 46.96 192.43 45.30Q192.50 44.02 193.17 42.67Q193.84 41.33 195.31 40.11Q193.07 38.83 191.86 36.62Q190.64 34.42 190.64 31.73Q190.70 28.85 192.18 26.58Q193.65 24.30 196.27 22.99Q198.90 21.68 202.35 21.68Q205.17 21.68 207.54 22.83L211.76 22.64Q213.23 22.58 214.77 22.35Q216.30 22.13 217.20 21.87Q217.20 22.77 217.04 23.66Q216.88 24.56 216.75 24.75Q216.50 25.33 216.08 25.46Q215.66 25.58 215.15 25.58Q214.06 25.58 212.94 25.46Q211.82 25.33 210.74 25.14Q211.89 26.35 212.56 27.95Q213.23 29.55 213.23 31.41Q213.23 34.42 211.66 36.75Q210.10 39.09 207.47 40.40Q204.85 41.71 201.58 41.71Q199.28 41.71 197.23 41.01Q196.66 41.71 196.40 42.54Q196.14 43.38 196.08 44.27Q196.02 45.36 196.94 46.19Q197.87 47.02 200.05 46.96L206.58 46.70Q210.22 46.58 212.43 47.60Q214.64 48.62 215.63 50.29Q216.62 51.95 216.56 53.81Q216.50 56.88 214.51 59.25Q212.53 61.62 209.14 62.96Q205.74 64.30 201.46 64.24Q196.21 64.11 192.94 62.10Q189.68 60.08 189.68 56.30Q189.68 55.28 190.06 54.13Q190.45 52.98 191.28 52.14Q192.11 51.31 193.01 51.76M202.67 38.96Q205.30 38.96 207.31 37.23Q209.33 35.50 209.33 32.11Q209.33 30.13 208.40 28.37Q207.47 26.61 205.71 25.46Q203.95 24.30 201.33 24.30Q197.94 24.30 196.24 26.29Q194.54 28.27 194.54 31.15Q194.54 34.67 196.85 36.82Q199.15 38.96 202.67 38.96M233.97 53.04Q229.94 53.04 227.54 50.61Q225.14 48.18 225.14 42.99L225.20 28.08Q225.20 26.80 224.98 26.19Q224.75 25.58 223.66 25.52L221.17 25.26Q220.72 25.26 220.72 24.75Q220.72 23.79 221.36 23.02Q222.38 22.70 224.08 22.51Q225.78 22.32 226.93 22.32Q228.34 22.32 228.75 22.99Q229.17 23.66 229.04 25.20Q228.91 26.93 228.78 30.10Q228.66 33.26 228.66 36.66Q228.66 38.13 228.69 39.63Q228.72 41.14 228.78 42.61Q229.04 46.13 230.77 47.89Q232.50 49.65 235.25 49.71Q237.62 49.78 240.11 48.40Q242.61 47.02 244.14 44.78Q244.40 40.75 244.50 36.27Q244.59 31.79 244.59 28.27Q244.59 26.99 244.27 26.38Q243.95 25.78 242.86 25.71L240.69 25.65Q240.24 25.65 240.24 25.14Q240.24 24.18 240.88 23.41Q241.97 23.09 243.54 22.80Q245.10 22.51 246.32 22.51Q248.56 22.51 248.37 25.20Q248.24 27.18 248.11 30.10Q247.98 33.01 247.89 36.27Q247.79 39.54 247.73 42.51Q247.66 45.49 247.66 47.54Q247.60 48.62 248.05 49.01Q248.50 49.39 249.26 49.33L252.34 49.14Q252.72 49.14 252.72 49.58Q252.72 49.90 252.56 50.54Q252.40 51.18 252.08 51.50Q251.25 51.95 249.52 52.37Q247.79 52.78 246.70 52.72Q245.62 52.66 244.91 51.34Q244.21 50.03 244.08 48.24Q242.16 50.42 239.47 51.73Q236.78 53.04 233.97 53.04M279.02 52.72Q277.74 52.72 276.98 51.60Q276.21 50.48 276.08 48.75Q273.78 50.93 270.83 51.98Q267.89 53.04 265.20 53.04Q261.68 53.04 259.12 50.83Q256.56 48.62 256.56 44.59Q256.56 41.07 258.54 38.99Q260.53 36.91 264.85 35.86Q269.17 34.80 276.08 34.42L276.08 33.01Q276.08 31.66 275.95 30.13Q275.82 28.59 275.15 27.25Q274.48 25.90 272.94 25.04Q271.41 24.18 268.66 24.18Q265.52 24.18 263.98 25.55Q262.45 26.93 262.19 29.68Q261.94 29.68 261.62 29.71Q261.30 29.74 260.98 29.74Q259.82 29.74 258.80 29.42Q257.78 29.10 257.78 28.08Q257.78 27.06 258.93 25.94Q260.08 24.82 262 23.86Q263.92 22.90 266.22 22.29Q268.53 21.68 270.77 21.68Q273.07 21.68 275.15 22.48Q277.23 23.28 278.51 25.20Q279.79 27.12 279.66 30.51Q279.60 32.30 279.57 35.02Q279.54 37.74 279.54 40.43Q279.54 42.42 279.57 44.14Q279.60 45.87 279.60 47.09Q279.66 48.82 280.02 49.10Q280.37 49.39 281.07 49.33Q281.14 49.33 281.14 49.33L284.34 49.14Q284.72 49.14 284.72 49.58Q284.72 49.90 284.56 50.54Q284.40 51.18 284.08 51.50Q283.70 51.70 282.70 51.98Q281.71 52.27 280.66 52.50Q279.60 52.72 279.02 52.72M276.02 46.32L276.08 37.49Q273.39 37.23 271.28 37.23Q267.06 37.23 264.75 38.06Q262.45 38.90 261.55 40.40Q260.66 41.90 260.66 43.95Q260.66 46.96 262.58 48.34Q264.50 49.71 267.12 49.71Q269.42 49.71 271.82 48.82Q274.22 47.92 276.02 46.32M300.98 52.08L289.01 52.08Q288.37 52.08 288.37 51.44Q288.37 51.18 288.43 50.70Q288.50 50.22 288.75 49.84Q290.99 49.58 291.76 48.75Q292.53 47.92 292.66 46.32Q292.72 45.49 292.78 43.70Q292.85 41.90 292.88 39.57Q292.91 37.23 292.91 34.93Q292.91 32.75 292.88 30.99Q292.85 29.23 292.78 28.40Q292.72 27.12 292.30 26.51Q291.89 25.90 290.80 25.84L288.37 25.58Q287.92 25.58 287.92 25.07Q287.92 24.11 288.56 23.34Q289.58 23.02 291.12 22.83Q292.66 22.64 293.81 22.64Q296.43 22.64 296.37 25.52Q296.30 26.74 296.30 28.46Q297.39 25.52 299.47 23.60Q301.55 21.68 304.50 21.68Q305.78 21.68 306.93 22Q308.08 22.32 308.53 22.83Q308.72 23.02 308.72 23.41Q308.72 24.37 308.24 25.42Q307.76 26.48 307.31 26.80Q306.10 26.22 304.85 25.87Q303.60 25.52 302.51 25.52Q299.50 25.52 297.94 28.66Q296.37 31.79 296.24 36.91Q296.24 37.42 296.24 37.90Q296.24 38.38 296.24 38.90Q296.24 41.78 296.27 43.76Q296.30 45.74 296.37 47.41Q296.50 49.07 297.78 49.26Q298.10 49.26 298.96 49.33Q299.82 49.39 300.75 49.46Q301.68 49.52 302 49.52Q302 49.84 301.97 50.35Q301.94 50.86 301.81 51.18Q301.62 51.82 301.36 51.95Q301.10 52.08 300.98 52.08M327.98 8.56Q327.98 8.18 328.18 7.66Q328.37 7.15 328.62 6.83Q329.84 6.45 331.41 6.22Q332.98 6 334.19 6Q335.66 6 336.46 6.42Q337.26 6.83 337.14 8.50Q337.01 11.50 336.88 16.40Q336.75 21.30 336.69 27.60Q336.62 33.90 336.62 41.14L336.62 47.54Q336.62 48.62 337.01 49.01Q337.39 49.39 338.16 49.33L341.30 49.14Q341.68 49.14 341.68 49.58Q341.68 49.90 341.52 50.54Q341.36 51.18 341.04 51.50Q340.53 51.82 339.50 52.11Q338.48 52.40 337.39 52.56Q336.30 52.72 335.60 52.72Q334.64 52.66 333.90 51.50Q333.17 50.35 333.04 48.75Q331.38 50.61 328.82 51.82Q326.26 53.04 323.50 53.04Q320.43 53.04 317.65 51.44Q314.86 49.84 313.07 46.54Q311.28 43.25 311.28 38.19Q311.28 33.39 313.04 29.65Q314.80 25.90 318 23.79Q321.20 21.68 325.55 21.68Q327.79 21.68 329.74 22.32Q331.70 22.96 333.23 24.30Q333.17 20.34 333.07 16.94Q332.98 13.55 332.91 11.44Q332.85 10.29 332.43 9.84Q332.02 9.39 330.99 9.33L328.43 9.07Q327.98 9.01 327.98 8.56M333.17 44.08Q333.23 42.03 333.26 39.54Q333.30 37.04 333.30 34.35Q333.30 32.94 333.30 31.47Q332.59 28.40 330.10 26.58Q327.60 24.75 324.46 24.75Q320.30 24.75 317.78 27.92Q315.25 31.09 315.25 36.78Q315.25 42.54 317.81 46.03Q320.37 49.52 324.72 49.52Q327.41 49.52 329.78 48.08Q332.14 46.64 333.17 44.08" fill="#ffffff"/></svg>