<svg xmlns="http://www.w3.org/2000/svg" viewBox="0 0 395 67" width="395" height="67"><path d="M15.78 50.08L5.09 50.08Q4.45 50.08 4.45 49.44Q4.45 49.18 4.51 48.70Q4.58 48.22 4.83 47.84Q6.75 47.65 7.65 46.69Q8.54 45.73 8.61 43.74Q8.74 42.02 8.80 39.01Q8.86 36.00 8.96 32.35Q9.06 28.70 9.09 24.93Q9.12 21.15 9.12 17.89Q9.12 15.07 9.09 12.67Q9.06 10.27 8.93 9.44Q8.80 8.29 8.42 7.87Q8.03 7.46 7.01 7.33L4.45 7.07Q4.00 7.07 4.00 6.56Q4.00 6.18 4.19 5.66Q4.38 5.15 4.64 4.83Q5.86 4.45 7.42 4.22Q8.99 4.00 10.21 4.00Q11.68 4.00 12.48 4.42Q13.28 4.83 13.15 6.50Q13.09 8.10 12.96 10.94Q12.83 13.79 12.74 17.38Q12.64 20.96 12.58 24.74Q14.43 22.43 17.15 21.06Q19.87 19.68 22.82 19.68Q26.91 19.68 29.38 22.11Q31.84 24.54 31.84 29.73L31.84 37.47Q31.84 40.29 31.87 42.24Q31.90 44.19 31.97 45.73Q32.03 46.62 32.35 46.91Q32.67 47.20 33.06 47.33Q33.50 47.39 34.50 47.46Q35.49 47.52 36.32 47.52Q36.32 47.84 36.26 48.48Q36.19 49.12 36.06 49.44Q35.87 50.08 35.36 50.08L24.42 50.08Q23.78 50.08 23.78 49.44Q23.78 49.18 23.84 48.70Q23.90 48.22 24.16 47.84Q26.34 47.58 27.17 46.75Q28.00 45.92 28.19 44.32Q28.32 43.55 28.35 41.31Q28.38 39.07 28.38 36.45Q28.38 34.46 28.35 32.74Q28.32 31.01 28.26 30.11Q28.06 26.53 26.21 24.80Q24.35 23.07 21.54 23.01Q18.59 22.94 16.03 24.86Q13.47 26.78 12.45 29.79Q12.45 32.48 12.42 34.94Q12.38 37.41 12.38 39.46Q12.38 41.31 12.38 42.88Q12.38 44.45 12.45 45.60Q12.51 46.62 12.83 46.98Q13.15 47.33 13.92 47.46Q14.37 47.52 15.26 47.52Q16.16 47.52 16.80 47.52Q16.80 47.84 16.77 48.35Q16.74 48.86 16.61 49.18Q16.42 49.82 16.16 49.95Q15.90 50.08 15.78 50.08M68.38 50.72Q67.10 50.72 66.34 49.60Q65.57 48.48 65.44 46.75Q63.14 48.93 60.19 49.98Q57.25 51.04 54.56 51.04Q51.04 51.04 48.48 48.83Q45.92 46.62 45.92 42.59Q45.92 39.07 47.90 36.99Q49.89 34.91 54.21 33.86Q58.53 32.80 65.44 32.42L65.44 31.01Q65.44 29.66 65.31 28.13Q65.18 26.59 64.51 25.25Q63.84 23.90 62.30 23.04Q60.77 22.18 58.02 22.18Q54.88 22.18 53.34 23.55Q51.81 24.93 51.55 27.68Q51.30 27.68 50.98 27.71Q50.66 27.74 50.34 27.74Q49.18 27.74 48.16 27.42Q47.14 27.10 47.14 26.08Q47.14 25.06 48.29 23.94Q49.44 22.82 51.36 21.86Q53.28 20.90 55.58 20.29Q57.89 19.68 60.13 19.68Q62.43 19.68 64.51 20.48Q66.59 21.28 67.87 23.20Q69.15 25.12 69.02 28.51Q68.96 30.30 68.93 33.02Q68.90 35.74 68.90 38.43Q68.90 40.42 68.93 42.14Q68.96 43.87 68.96 45.09Q69.02 46.82 69.38 47.10Q69.73 47.39 70.43 47.33Q70.50 47.33 70.50 47.33L73.70 47.14Q74.08 47.14 74.08 47.58Q74.08 47.90 73.92 48.54Q73.76 49.18 73.44 49.50Q73.06 49.70 72.06 49.98Q71.07 50.27 70.02 50.50Q68.96 50.72 68.38 50.72M65.38 44.32L65.44 35.49Q62.75 35.23 60.64 35.23Q56.42 35.23 54.11 36.06Q51.81 36.90 50.91 38.40Q50.02 39.90 50.02 41.95Q50.02 44.96 51.94 46.34Q53.86 47.71 56.48 47.71Q58.78 47.71 61.18 46.82Q63.58 45.92 65.38 44.32M95.46 50.08L83.49 50.08Q82.85 50.08 82.85 49.44Q82.85 49.18 82.91 48.70Q82.98 48.22 83.23 47.84Q85.47 47.58 86.24 46.75Q87.01 45.92 87.14 44.32Q87.20 43.49 87.26 41.70Q87.33 39.90 87.36 37.57Q87.39 35.23 87.39 32.93Q87.39 30.75 87.36 28.99Q87.33 27.23 87.26 26.40Q87.20 25.12 86.78 24.51Q86.37 23.90 85.28 23.84L82.85 23.58Q82.40 23.58 82.40 23.07Q82.40 22.11 83.04 21.34Q84.06 21.02 85.60 20.83Q87.14 20.64 88.29 20.64Q90.91 20.64 90.85 23.52Q90.78 24.74 90.78 26.46Q91.87 23.52 93.95 21.60Q96.03 19.68 98.98 19.68Q100.26 19.68 101.41 20.00Q102.56 20.32 103.01 20.83Q103.20 21.02 103.20 21.41Q103.20 22.37 102.72 23.42Q102.24 24.48 101.79 24.80Q100.58 24.22 99.33 23.87QNaN NaN NaN NaNaN 32.32 94.91 32.32Q93.98 23.52 92.42 26.66Q90.85 29.79 90.72 34.91Q90.72 35.42 90.72 35.90Q90.72 36.38 90.72 36.90Q90.72 39.78 90.75 41.76Q90.78 43.74 90.85 45.41Q90.98 47.07 92.26 47.26Q92.58 47.26 93.44 47.33Q94.30 47.39 95.23 47.46Q96.16 47.52 96.48 47.52Q96.48 47.84 96.45 48.35Q96.42 48.86 96.29 49.18Q96.10 49.82 95.84 49.95Q95.58 50.08 95.46 50.08M115.42 50.27Q114.98 50.21 114.37 49.89Q113.76 49.57 113.44 49.12Q113.89 48.35 114.24 46.69Q114.59 45.02 114.66 43.74Q114.78 42.46 114.85 39.90Q114.91 37.34 114.94 34.08Q114.98 30.82 115.01 27.30Q115.04 23.78 115.04 20.51Q115.04 16.48 115.01 13.41Q114.98 10.34 114.85 9.44Q114.72 8.29 114.34 7.87Q113.95 7.46 112.93 7.33L110.37 7.07Q109.92 7.07 109.92 6.56Q109.92 6.18 110.11 5.66Q110.30 5.15 110.56 4.83Q111.78 4.45 113.34 4.22Q114.91 4.00 116.13 4.00Q117.60 4.00 118.40 4.42Q119.20 4.83 119.07 6.50Q118.88 9.63 118.75 14.46Q118.62 19.30 118.50 24.61Q120.48 22.30 123.14 20.99Q125.79 19.68 128.48 19.68Q131.74 19.68 134.50 21.31Q137.25 22.94 138.91 26.14Q140.58 29.34 140.64 34.08Q140.70 38.82 138.98 42.66Q137.25 46.50 134.02 48.77Q130.78 51.04 126.30 51.04Q121.18 51.04 118.11 47.84Q117.60 48.67 116.80 49.41Q116.00 50.14 115.42 50.27M118.50 28.26Q118.43 31.33 118.43 34.08Q118.43 36.32 118.46 38.37Q118.50 40.42 118.50 42.21Q119.33 44.90 121.66 46.50Q124.00 48.10 127.01 48.10Q131.30 48.10 133.92 44.70Q136.54 41.31 136.61 35.42Q136.67 29.73 134.05 26.40Q131.42 23.07 127.14 23.07Q124.45 23.07 122.05 24.45Q119.65 25.82 118.50 28.26M164.83 51.04Q160.74 51.04 157.76 49.15Q154.78 47.26 153.18 43.87Q151.58 40.48 151.52 36.13Q151.52 31.26 153.41 27.58Q155.30 23.90 158.66 21.79Q162.02 19.68 166.30 19.68Q170.40 19.68 173.38 21.54Q176.35 23.39 178.02 26.72Q179.68 30.05 179.68 34.46Q179.74 39.33 177.82 43.07Q175.90 46.82 172.54 48.93Q169.18 51.04 164.83 51.04M166.11 47.90Q170.78 47.90 173.28 44.70Q175.78 41.50 175.78 35.94Q175.78 29.92 172.86 26.37Q169.95 22.82 165.09 22.82Q160.48 22.82 157.95 26.05Q155.42 29.28 155.42 34.78Q155.42 40.80 158.30 44.35Q161.18 47.90 166.11 47.90M202.66 50.08L190.69 50.08Q190.05 50.08 190.05 49.44Q190.05 49.18 190.11 48.70Q190.18 48.22 190.43 47.84Q192.67 47.58 193.44 46.75Q194.21 45.92 194.34 44.32Q194.40 43.49 194.46 41.70Q194.53 39.90 194.56 37.57Q194.59 35.23 194.59 32.93Q194.59 30.75 194.56 28.99Q194.53 27.23 194.46 26.40Q194.40 25.12 193.98 24.51Q193.57 23.90 192.48 23.84L190.05 23.58Q189.60 23.58 189.60 23.07Q189.60 22.11 190.24 21.34Q191.26 21.02 192.80 20.83Q194.34 20.64 195.49 20.64Q198.11 20.64 198.05 23.52Q197.98 24.74 197.98 26.46Q199.07 23.52 201.15 21.60Q203.23 19.68 206.18 19.68Q207.46 19.68 208.61 20.00Q209.76 20.32 210.21 20.83Q210.40 21.02 210.40 21.41Q210.40 22.37 209.92 23.42Q209.44 24.48 208.99 24.80Q207.78 24.22 206.53 23.87Q205.28 23.52 204.19 23.52Q201.18 23.52 199.62 26.66Q198.05 29.79 197.92 34.91Q197.92 35.42 197.92 35.90Q197.92 36.38 197.92 36.90Q197.92 39.78 197.95 41.76Q197.98 43.74 198.05 45.41Q198.18 47.07 199.46 47.26Q199.78 47.26 200.64 47.33Q201.50 47.39 202.43 47.46Q203.36 47.52 203.68 47.52Q203.68 47.84 203.65 48.35Q203.62 48.86 203.49 49.18Q203.30 49.82 203.04 49.95Q202.78 50.08 202.66 50.08M221.73 49.76L222.50 50.14Q222.05 50.91 221.92 51.74Q221.79 52.58 221.79 53.15Q221.79 55.07 223.14 56.42Q224.48 57.76 226.66 58.43Q228.83 59.10 231.33 59.17Q233.89 59.17 236.22 58.56Q238.56 57.95 240.06 56.58Q241.57 55.20 241.63 53.09Q241.70 51.04 240.06 49.47Q238.43 47.90 234.72 48.03L228.64 48.22Q226.72 48.29 224.96 47.74Q223.20 47.20 222.14 46.08Q221.09 44.96 221.15 43.30Q221.22 42.02 221.89 40.67Q222.56 39.33 224.03 38.11Q221.79 36.83 220.58 34.62Q219.36 32.42 219.36 29.73Q219.42 26.85 220.90 24.58Q222.37 22.30 224.99 20.99Q227.62 19.68 231.07 19.68Q233.89 19.68 236.26 20.83L240.48 20.64Q241.95 20.58 243.49 20.35Q245.02 20.13 245.92 19.87Q245.92 20.77 245.76 21.66Q245.60 22.56 245.47 22.75Q245.22 23.33 244.80 23.46Q244.38 23.58 243.87 23.58Q242.78 23.58 241.66 23.46Q240.54 23.33 239.46 23.14Q240.61 24.35 241.28 25.95Q241.95 27.55 241.95 29.41Q241.95 32.42 240.38 34.75Q238.82 37.09 236.19 38.40Q233.57 39.71 230.30 39.71Q228.00 39.71 225.95 39.01Q225.38 39.71 225.12 40.54Q224.86 41.38 224.80 42.27Q224.74 43.36 225.66 44.19Q226.59 45.02 228.77 44.96L235.30 44.70Q238.94 44.58 241.15 45.60Q243.36 46.62 244.35 48.29Q245.34 49.95 245.28 51.81Q245.22 54.88 243.23 57.25Q241.25 59.62 237.86 60.96Q234.46 62.30 230.18 62.24Q224.93 62.11 221.66 60.10Q218.40 58.08 218.40 54.30Q218.40 53.28 218.78 52.13Q219.17 50.98 220.00 50.14Q220.83 49.31 221.73 49.76M231.39 36.96Q234.02 36.96 236.03 35.23Q238.05 33.50 238.05 30.11Q238.05 28.13 237.12 26.37Q236.19 24.61 234.43 23.46Q232.67 22.30 230.05 22.30Q226.66 22.30 224.96 24.29Q223.26 26.27 223.26 29.15Q223.26 32.67 225.57 34.82Q227.87 36.96 231.39 36.96M267.81 51.04Q263.78 51.04 261.38 48.61Q258.98 46.18 258.98 40.99L259.04 26.08Q259.04 24.80 258.82 24.19Q258.59 23.58 257.50 23.52L255.01 23.26Q254.56 23.26 254.56 22.75Q254.56 21.79 255.20 21.02Q256.22 20.70 257.92 20.51Q259.62 20.32 260.77 20.32Q262.18 20.32 262.59 20.99Q263.01 21.66 262.88 23.20Q262.75 24.93 262.62 28.10Q262.50 31.26 262.50 34.66Q262.50 36.13 262.53 37.63Q262.56 39.14 262.62 40.61Q262.88 44.13 264.61 45.89Q266.34 47.65 269.09 47.71Q271.46 47.78 273.95 46.40Q276.45 45.02 277.98 42.78Q278.24 38.75 278.34 34.27Q278.43 29.79 278.43 26.27Q278.43 24.99 278.11 24.38Q277.79 23.78 276.70 23.71L274.53 23.65QNaN NaN NaN NaNaN 32.45 NaN 31.94QNaN NaN NaN NaNaN 30.98 272.64 30.21Q275.81 21.09 277.38 20.80Q278.94 20.51 280.16 20.51Q282.40 20.51 282.21 23.20QNaN NaN NaN NaNaN 33.98 279.87 36.90Q281.82 31.01 281.73 34.27Q281.63 37.54 281.57 40.51Q281.50 43.49 281.50 45.54Q281.44 46.62 281.89 47.01Q282.34 47.39 283.10 47.33L286.18 47.14Q286.56 47.14 286.56 47.58Q286.56 47.90 286.40 48.54Q286.24 49.18 285.92 49.50Q285.09 49.95 283.36 50.37Q281.63 50.78 280.54 50.72Q279.46 50.66 278.75 49.34Q278.05 48.03 277.92 46.24Q276.00 48.42 273.31 49.73Q270.62 51.04 267.81 51.04M317.98 50.72Q316.70 50.72 315.94 49.60Q315.17 48.48 315.04 46.75Q312.74 48.93 309.79 49.98Q306.85 51.04 304.16 51.04Q300.64 51.04 NaN NaNaN 57.63Q295.52 46.62 295.52 42.59Q295.52 39.07 297.50 36.99Q299.49 34.91 303.81 33.86Q308.13 32.80 315.04 32.42L315.04 31.01Q315.04 29.66 314.91 28.13Q314.78 26.59 314.11 25.25Q313.44 23.90 311.90 23.04Q310.37 22.18 307.62 22.18Q304.48 22.18 302.94 23.55Q301.41 24.93 301.15 27.68Q300.90 27.68 300.58 27.71Q300.26 27.74 299.94 27.74Q298.78 27.74 297.76 27.42Q296.74 27.10 296.74 26.08Q296.74 25.06 297.89 23.94Q299.04 22.82 300.96 21.86Q302.88 20.90 305.18 20.29Q307.49 19.68 309.73 19.68Q312.03 19.68 314.11 20.48Q316.19 21.28 317.47 23.20Q318.75 25.12 318.62 28.51Q318.56 30.30 318.53 33.02Q318.50 35.74 318.50 38.43Q318.50 40.42 318.53 42.14Q318.56 43.87 318.56 45.09Q318.62 46.82 318.98 47.10Q319.33 47.39 320.03 47.33Q320.10 47.33 320.10 47.33L323.30 47.14Q323.68 47.14 323.68 47.58Q323.68 47.90 323.52 48.54Q323.36 49.18 323.04 49.50Q322.66 49.70 321.66 49.98Q320.67 50.27 319.62 50.50Q318.56 50.72 317.98 50.72M314.98 44.32L315.04 35.49Q312.35 35.23 310.24 35.23Q306.02 35.23 303.71 36.06Q301.41 36.90 300.51 38.40Q299.62 39.90 299.62 41.95Q299.62 44.96 301.54 46.34Q303.46 47.71 NaN NaNaN 56.51Q308.38 47.71 310.78 46.82Q313.18 45.92 314.98 44.32M345.06 50.08L333.09 50.08Q332.45 50.08 332.45 49.44Q332.45 49.18 332.51 48.70Q332.58 48.22 332.83 47.84Q335.07 47.58 335.84 46.75Q336.61 45.92 336.74 44.32Q336.80 43.49 336.86 41.70Q336.93 39.90 336.96 37.57Q336.99 35.23 336.99 32.93Q336.99 30.75 336.96 28.99Q336.93 27.23 336.86 26.40Q336.80 25.12 336.38 24.51Q335.97 23.90 334.88 23.84L332.45 23.58Q332.00 23.58 332.00 23.07Q332.00 22.11 332.64 21.34Q333.66 21.02 335.20 20.83Q336.74 20.64 337.89 20.64Q340.51 20.64 340.45 23.52Q340.38 24.74 340.38 26.46Q341.47 23.52 343.55 21.60Q345.63 19.68 348.58 19.68Q349.86 19.68 351.01 20.00Q352.16 20.32 352.61 20.83Q352.80 21.02 352.80 21.41Q352.80 22.37 352.32 23.42Q351.84 24.48 351.39 24.80Q350.18 24.22 348.93 23.87Q347.68 23.52 346.59 23.52Q343.58 23.52 342.02 26.66Q340.45 29.79 340.32 34.91Q340.32 35.42 340.32 35.90Q340.32 36.38 340.32 36.90Q340.32 39.78 340.35 41.76Q340.38 43.74 340.45 45.41Q340.58 47.07 341.86 47.26Q342.18 47.26 343.04 47.33Q343.90 47.39 344.83 47.46Q345.76 47.52 NaN NaNaN 56.32QNaN NaN NaN NaNaN 56.64 343.97 57.15Q346.02 48.86 345.89 49.18Q345.70 49.82 345.44 49.95Q345.18 50.08 345.06 50.08M377.18 6.56Q377.18 6.18 377.38 5.66Q377.57 5.15 377.82 4.83Q379.04 4.45 380.61 4.22Q382.18 4.00 383.39 4.00Q384.86 4.00 385.66 4.42Q386.46 4.83 386.34 6.50Q386.21 9.50 NaN NaNaN 23.20Q385.95 19.30 385.89 25.60Q385.82 31.90 385.82 39.14L385.82 45.54Q385.82 46.62 386.21 47.01Q386.59 47.39 387.36 47.33L390.50 47.14Q390.88 47.14 390.88 47.58Q390.88 47.90 390.72 48.54Q390.56 49.18 390.24 49.50Q389.73 49.82 388.70 50.11Q387.68 50.40 386.59 50.56Q385.50 50.72 384.80 50.72Q383.84 50.66 383.10 49.50Q382.37 48.35 382.24 46.75Q380.58 48.61 378.02 49.82Q375.46 51.04 372.70 51.04Q369.63 51.04 366.85 49.44Q364.06 47.84 362.27 44.54Q360.48 41.25 360.48 36.19Q360.48 31.39 362.24 27.65Q364.00 23.90 367.20 21.79Q370.40 19.68 374.75 19.68Q376.99 19.68 378.94 20.32Q380.90 20.96 382.43 22.30Q382.37 18.34 382.27 14.94Q382.18 11.55 382.11 9.44Q382.05 8.29 381.63 7.84Q381.22 7.39 380.19 7.33L377.63 7.07Q377.18 7.01 377.18 6.56M382.37 42.08Q382.43 40.03 382.46 37.54Q382.50 35.04 382.50 32.35Q382.50 30.94 382.50 29.47Q381.79 26.40 379.30 24.58Q376.80 22.75 373.66 22.75Q369.50 22.75 366.98 25.92Q364.45 29.09 364.45 34.78Q364.45 40.54 367.01 44.03Q369.57 47.52 373.92 47.52Q376.61 47.52 378.98 46.08Q381.34 44.64 382.37 42.08" fill="#ffffff"/></svg>